<svg width="1024" height="1024" xmlns="http://www.w3.org/2000/svg" class="icon">

    <g>
        <title>background</title>
        <rect fill="none" id="canvas_background" height="402" width="582" y="-1" x="-1"/>
    </g>
    <g>
        <title>Layer 1</title>
        <path stroke-width="0" id="svg_1"
              d="m850.34667,155.008a42.66667,42.66667 0 0 0 -22.74134,-23.50933c-8.704,-3.75467 -85.71733,-33.32267 -200.32,39.168l-230.57066,0c-114.77334,-72.61867 -191.70134,-42.92267 -200.32,-39.168a42.88,42.88 0 0 0 -22.74134,23.46666c-26.19733,66.21867 -18.048,136.448 -7.85066,176.896c-31.53067,42.15467 -37.80267,81.23734 -37.80267,137.472c0,177.87734 127.104,227.88267 226.73067,246.272a189.568,189.568 0 0 0 -13.01334,46.54934a44.37333,44.37333 0 0 0 -0.384,5.84533l0,38.61333c-19.49866,-4.13866 -41.00266,-11.94666 -55.168,-26.112c-48.08533,-48.08533 -97.83466,-97.83466 -158.16533,-97.83466l0,85.33333c25.00267,0 65.36533,40.36267 97.83467,72.832c51.02933,51.02933 129.06666,55.25333 153.38666,55.25333c3.11467,0 5.376,-0.08533 6.528,-0.128a42.66667,42.66667 0 0 0 40.91734,-42.624l0,-82.09066c4.26666,-24.74667 20.224,-49.62134 27.94666,-56.36267a42.66667,42.66667 0 0 0 -23.12533,-74.58133c-138.15467,-15.744 -218.15467,-48.81067 -218.15467,-170.96534c0,-53.12 5.632,-70.74133 31.57334,-99.28533c11.008,-12.11733 14.08,-29.568 7.97866,-44.8c-4.82133,-11.904 -18.77333,-65.45067 -6.48533,-117.54667c20.65067,-1.57866 59.904,4.56534 113.70667,40.96c6.99733,4.77867 15.36,7.33867 23.89333,7.33867l256,0a42.66667,42.66667 0 0 0 23.936,-7.33867c54.016,-36.52266 92.97067,-41.77066 113.664,-41.13066c12.33067,52.224 -1.57867,105.77066 -6.4,117.67466a42.66667,42.66667 0 0 0 8.02133,44.928c25.856,28.33067 31.44534,45.952 31.44534,99.2c0,122.58134 -79.95734,155.52 -218.06934,170.92267a42.66667,42.66667 0 0 0 -23.12533,74.70933c19.79733,17.06667 27.86133,32.46934 27.86133,53.03467l0,128l85.33334,0l0,-128c0,-20.43733 -3.92534,-38.10133 -9.77067,-53.12c97.024,-19.11467 223.104,-71.168 223.104,-245.54667c0,-56.36266 -6.272,-95.53066 -37.76,-137.51466c10.19733,-40.40534 18.26133,-110.50667 -7.89333,-176.81067z"/>
        <path id="svg_5" d="m462.909162,599.544922" opacity="0.5" fill-opacity="null" stroke-opacity="null"
              stroke-width="0" stroke="null"/>
        <path id="svg_6" d="m439.64837,539.75264c59.93169,63.18848 98.41634,71.72897 164.22686,0.36311" stroke-width="0"
              fill="#B6C7EA"/>
    </g>
</svg>